<svg xmlns="http://www.w3.org/2000/svg" width="8.53" height="9.953" viewBox="0 0 8.53 9.953">
    <g>
        <path fill="#42bd83" d="M14.168 7.3l-3.732-1.27a.524.524 0 0 0-.343 0L6.362 7.3A.532.532 0 0 0 6 7.8v2.856c0 3.486 3.891 5.181 4.057 5.251a.53.53 0 0 0 .417 0c.166-.071 4.057-1.765 4.057-5.251V7.8a.532.532 0 0 0-.362-.5" transform="translate(-6 -5.999)"/>
        <path fill="#fff" d="M13.468 11.151l-1.955 2.488a.711.711 0 0 1-1.021.1l-1.243-1.066a.711.711 0 0 1 .925-1.079l.681.584 1.5-1.9a.71.71 0 1 1 1.117.877" transform="translate(-6 -5.999) translate(-.867 -1.157)"/>
    </g>
</svg>
